<svg width="25" height="25" viewBox="0 0 25 25" fill="none" xmlns="http://www.w3.org/2000/svg">
<g id="chat 2">
<path id="Vector" fill-rule="evenodd" clip-rule="evenodd" d="M4.18437 18.5844C4.34656 18.7472 4.47083 18.9438 4.54835 19.1601C4.62586 19.3764 4.6547 19.6072 4.63281 19.8359C4.523 20.8947 4.31481 21.9408 4.01094 22.9609C6.19062 22.4562 7.52188 21.8719 8.12656 21.5656C8.46954 21.3919 8.86451 21.3507 9.23594 21.45C10.3007 21.7339 11.3981 21.8767 12.5 21.875C18.7438 21.875 23.4375 17.4891 23.4375 12.5C23.4375 7.5125 18.7438 3.125 12.5 3.125C6.25625 3.125 1.5625 7.5125 1.5625 12.5C1.5625 14.7938 2.52656 16.9219 4.18437 18.5844ZM3.41406 24.6859C3.04386 24.7593 2.67245 24.8265 2.3 24.8875C1.9875 24.9375 1.75 24.6125 1.87344 24.3219C2.01217 23.9947 2.13934 23.6627 2.25469 23.3266L2.25937 23.3109C2.64687 22.1859 2.9625 20.8922 3.07813 19.6875C1.16094 17.7656 0 15.25 0 12.5C0 6.45938 5.59687 1.5625 12.5 1.5625C19.4031 1.5625 25 6.45938 25 12.5C25 18.5406 19.4031 23.4375 12.5 23.4375C11.262 23.4392 10.029 23.2784 8.83281 22.9594C8.02031 23.3703 6.27187 24.1187 3.41406 24.6859V24.6859Z" fill="#FBFBFB"/>
</g>
</svg>
